<svg width="568" height="726" viewBox="0 0 568 726" fill="none" xmlns="http://www.w3.org/2000/svg">
<path fill-rule="evenodd" clip-rule="evenodd" d="M21.31 15.1961C27.788 9.4861 40.455 3.11511 49 1.27011C54.487 0.0851051 91.569 -0.105893 287 0.044107L518.5 0.222101L525 2.55509C545.256 9.82709 560.209 25.7581 565.515 45.7221C566.777 50.4711 566.978 82.8821 566.988 283.078C566.999 508.895 567.407 520.6 562.708 529.655C562.062 530.9 561.319 532.095 560.466 533.79C556.416 541.833 548.047 551.169 540.248 556.345C537.135 558.412 530.743 561.479 526.044 563.162L517.5 566.222L407.054 566.502C346.308 566.655 296.858 566.531 297.163 566.225C297.469 565.92 309.05 558.944 322.898 550.724L348.077 535.777L430.789 535.5C506.009 535.247 514.18 535.492 520.044 531.934C521.212 531.226 522.288 530.367 523.784 529.323C528.723 525.877 533.559 519.074 535.077 513.436C535.797 510.764 536.154 437.755 536.208 282.141L536.289 54.7501L533.102 48.2781C529.336 40.6281 523.85 35.5581 516.269 32.7211C510.915 30.7181 509.374 30.7071 282.69 30.9631L54.5 31.2221L50 33.5781C43.869 36.7881 38.356 42.2291 35.164 48.2221L32.5 53.2221V283.222V513.222L35.164 518.222C38.588 524.649 44.193 530.022 50.5 532.923L55.5 535.222L138 535.722L220.5 536.222L245 550.622C258.475 558.543 269.946 565.424 270.491 565.914C271.072 566.435 225.681 566.674 160.991 566.489C59.1371 566.199 48.1059 566.53 39.1561 562.376C37.2783 561.505 35.4921 560.436 32.978 559.122C19.649 552.157 8.678 539.142 3.94 524.672L1.5 517.222V282.722V48.2221L4.12399 41.0461C7.47699 31.8761 14.682 21.0401 21.31 15.1961ZM251.488 51.7421C251.967 50.9671 273.789 38.2171 276 37.4201C276.825 37.1231 280.474 36.8441 284.109 36.8011C289.502 36.7371 291.71 37.2391 296.109 39.5291C301.083 42.1201 319.098 52.5171 319.811 53.2091C320.087 53.4771 309.293 75.6541 308.428 76.5961C308.239 76.8021 302.951 73.9901 296.677 70.3461C290.403 66.7031 284.783 63.7221 284.189 63.7221C283.594 63.7221 278.065 66.6531 271.901 70.2361C265.737 73.8181 260.497 76.5521 260.256 76.3121C259.312 75.3671 251.103 52.3641 251.488 51.7421ZM56.662 68.2221C59.75 62.5071 64.728 57.7801 70.5 55.0801L75.5 52.7421L139.973 52.7321C194.4 52.7241 204.138 52.9321 202.473 54.0721C201.388 54.8141 186.775 63.2991 170 72.9271C71.967 129.193 56.785 137.867 55.412 138.394C54.076 138.907 53.934 135.066 54.199 105.598C54.488 73.5911 54.589 72.0581 56.662 68.2221ZM411.5 80.5091C388.4 67.3181 368.15 55.6701 366.5 54.6241C363.537 52.7461 364.308 52.7261 429.579 52.9731L495.659 53.2221L500.545 56.2431C506.344 59.8291 511.454 66.1861 513.223 72.0141C514.562 76.4261 515.152 136.905 513.869 138.187C513.521 138.534 499.796 131.095 483.369 121.655C466.941 112.216 434.6 93.7001 411.5 80.5091ZM205.019 116.767C225.742 71.5821 229.068 64.9441 231.977 62.9721C233.802 61.7341 235.625 60.7221 236.027 60.7221C236.119 60.7221 236.188 60.6897 236.26 60.6856C236.884 60.6497 237.633 62.7789 254.379 107.722C262.884 130.547 270.135 149.968 270.493 150.879C270.964 152.081 273.457 152.88 279.576 153.791C284.215 154.481 288.185 154.86 288.4 154.634C288.614 154.407 298.809 133.859 311.056 108.972C323.303 84.0851 333.701 63.7221 334.162 63.7221C334.623 63.7221 334.998 67.6601 334.995 72.4721C334.991 80.9991 338.95 165.005 339.376 165.432C339.494 165.55 345.71 167.801 353.188 170.434L366.786 175.223L387.143 194.308L407.5 213.393L411.379 222.509L415.259 231.626L412.742 234.617C410.098 237.759 407.15 250.281 408.695 251.807C409.343 252.447 449.993 264.722 451.463 264.722C451.689 264.722 453.473 266.41 455.428 268.472C458.845 272.077 458.983 272.511 458.991 279.673C458.997 284.565 460.73 295.844 464.039 312.514C466.931 327.088 468.788 338.814 468.399 340.041C466.644 345.569 449.856 380.354 448.444 381.387C447.565 382.03 444.518 382.857 441.673 383.225C436.814 383.854 435.995 384.409 428.169 392.387L419.838 400.88L401.169 396.295C390.901 393.774 381.357 391.713 379.959 391.716C378.303 391.72 373.643 394.653 366.577 400.14C360.614 404.77 355.232 408.393 354.618 408.191C346.879 405.654 319.708 399.636 319.093 400.324C318.65 400.818 316.844 406.767 315.078 413.543L311.869 425.865L325.934 469.161C333.67 492.973 340 512.854 340 513.339C339.999 514.138 303.232 536.158 295.137 540.208C290.684 542.435 282.463 543.204 277.5 541.856C275.3 541.259 267.65 537.324 260.5 533.113C234.502 517.801 127.401 455.337 96.845 437.667C79.605 427.697 63.84 417.941 61.812 415.988C59.783 414.035 57.188 410.263 56.045 407.606C53.976 402.795 53.968 402.299 54.234 287.498L54.5 172.222L56.658 168.222C57.846 166.022 60.098 163.006 61.663 161.52C63.229 160.034 77.107 151.547 92.505 142.66C122.628 125.274 192.777 84.9171 199.76 80.9561L204.02 78.5401L203.075 80.8811C202.555 82.1691 198.351 91.5071 193.733 101.633L185.336 120.044L152.323 139.133C134.166 149.632 110.7 163.172 100.177 169.222L81.044 180.222L81.022 284.172C81.008 348.475 81.356 387.76 81.933 387.172C82.446 386.65 90.253 373.172 99.284 357.222C108.314 341.272 128.532 305.722 144.213 278.222C159.894 250.722 173.622 226.422 174.718 224.222C176.301 221.045 177.191 214.883 179.045 194.267L181.379 168.312L205.019 116.767ZM418.456 437.885C421.172 436.301 423.926 434.695 426.682 433.087C427.327 432.71 427.972 432.334 428.616 431.958C425.217 433.942 421.807 435.931 418.456 437.885ZM244.639 153.959C242.207 144.754 238.523 130.472 236.453 122.222C234.383 113.972 232.416 106.902 232.083 106.511C231.75 106.119 224.985 120.294 217.05 138.011L202.623 170.222L200.975 189.222L199.327 208.222L204.705 214.884C209.118 220.351 210.949 222.838 212.546 222.696C213.908 222.574 215.1 220.541 217.579 216.813L222.272 209.754L216.854 203.488L211.437 197.222L212.547 184.977C213.158 178.242 213.907 172.482 214.212 172.177C214.517 171.871 218.715 175.898 223.54 181.125C228.366 186.352 232.918 190.86 233.656 191.143C234.518 191.474 237.515 187.907 242.03 181.177L249.062 170.697L244.639 153.959ZM344.396 185.463C333.706 181.803 324.732 179.674 305.5 176.236C291.75 173.779 279.536 171.604 278.357 171.404C278.256 171.387 278.16 171.37 278.064 171.362C276.065 171.193 273.752 174.732 220.202 256.472C216.148 262.66 212.532 267.704 212.166 267.683C211.8 267.661 207.45 262.501 202.5 256.214C197.55 249.928 193.181 244.771 192.792 244.753C192.729 244.75 192.679 244.734 192.628 244.729C192.004 244.662 191.218 246.129 165.97 291.222C135.913 344.905 104.618 400.572 102.075 404.875L99.917 408.528L105.709 411.82C114.506 416.821 174.102 451.591 185.843 458.572C191.532 461.954 196.365 464.722 196.584 464.722C196.803 464.722 197.098 441.66 197.241 413.472L197.5 362.222L215.403 424.42L233.305 486.619L249.323 495.92L256.126 499.871C263.289 504.03 270.631 508.294 274.383 510.472C280.21 513.856 284.084 515.513 285.279 515.133C286.809 514.648 308.543 502.248 309.918 501.076C310.447 500.625 297.674 459.759 297 459.747C296.725 459.742 294.511 467.047 292.08 475.98C289.649 484.913 287.483 492.563 287.267 492.979C287.05 493.395 284.946 491.379 282.59 488.499L278.307 483.262L280.609 472.742C281.875 466.956 285.432 451.035 288.512 437.362C291.593 423.689 293.969 412.357 293.792 412.181C293.616 412.005 284.278 419.241 273.041 428.263C261.803 437.284 252.514 444.565 252.397 444.443C252.046 444.078 258.691 415.031 259.38 413.916C259.73 413.349 263.051 410.737 266.759 408.112C274.356 402.732 297.004 385.931 298.433 384.615C298.947 384.142 299.167 383.556 298.923 383.312C298.679 383.068 287.459 380.098 273.99 376.712C260.52 373.326 247.827 370.129 245.782 369.609C242.64 368.809 239.731 365.952 227.032 351.193L212 333.725L212.083 310.473L212.167 287.222L214.646 292.464C216.009 295.347 219.348 303.596 222.065 310.795C226.753 323.219 227.404 324.324 234.857 332.553C242.636 341.141 245.636 344.987 249.529 347.377C253.688 349.929 258.867 350.819 271.98 354.053C284.344 357.101 294.522 359.511 294.598 359.409C294.674 359.306 293.607 353.024 292.226 345.448C290.845 337.872 289.975 331.414 290.293 331.096C290.61 330.779 293.439 332.358 296.579 334.607L302.288 338.695L310.623 357.886C315.206 368.441 319.518 377.424 320.203 377.848C320.889 378.271 329.163 380.526 338.591 382.858L355.732 387.098L368.116 376.701C374.927 370.982 390.175 357.947 402 347.734C413.825 337.521 426.105 326.971 429.288 324.289L435.076 319.414L434.788 311.334L434.5 303.254L430.166 300.867L425.831 298.479L429.582 294.638C433.598 290.525 434.507 286.243 432.004 283.227C429.088 279.714 424.949 282.963 423.552 289.862C422.768 293.733 420.838 293.954 412.053 291.179L404.15 288.682L401.972 282.138C400.774 278.539 399.953 275.441 400.147 275.253C400.341 275.065 403.859 273.092 407.965 270.868C412.702 268.302 414.895 266.619 413.965 266.263C413.159 265.954 406.913 264.018 400.084 261.962L387.669 258.222L384.792 249.722C381.946 241.31 378 225.936 378 223.258C378 222.495 380.587 224.584 383.75 227.901L389.5 233.931L390.192 230.077C390.764 226.892 391.201 224.861 390.869 222.965C390.206 219.183 386.479 215.937 374.646 205.142L358.292 190.222L344.396 185.463ZM332 212.106C329.8 209.192 328 206.564 328 206.265C328 205.486 328.147 205.505 340.907 207.883L352.5 210.043L361.792 218.621L371.083 227.199L370.816 235.711C370.577 243.35 370.906 245.168 374.025 253.449L377.5 262.677L367.351 272.949C361.77 278.599 356.509 284.611 355.661 286.308C354.812 288.005 350.581 298.14 346.258 308.831C341.935 319.522 338.057 328.82 337.64 329.495C337.123 330.333 333.692 330.722 326.834 330.722C317.665 330.722 316.847 330.569 317.485 328.972C317.87 328.01 320.851 320.272 324.11 311.778L330.036 296.335L326.199 292.278C306.134 271.067 287.85 250.423 288.653 249.884C289.195 249.52 300.07 242.528 312.819 234.346C325.569 226.164 336 219.005 336 218.437C336 217.869 334.2 215.02 332 212.106ZM457.714 331.342C457.975 331.08 456.949 323.859 455.433 315.294C453.917 306.729 452.369 299.722 451.994 299.722C451.618 299.722 450.565 300.545 449.655 301.551C448.389 302.949 448.002 305.36 448.007 311.801L448.015 320.222L452.626 326.02C455.163 329.209 457.452 331.603 457.714 331.342ZM447.225 346.156C447.639 345.491 446.397 342.993 444.342 340.355C442.357 337.807 440.388 335.722 439.967 335.722C438.696 335.722 396 374.118 396 375.261C396 375.48 396.563 375.456 397.25 375.208C397.938 374.96 405.469 373.591 413.987 372.166C422.504 370.74 430.087 369.064 430.838 368.441C431.975 367.498 444.831 350.014 447.225 346.156ZM55.444 494.024C54.441 491.212 54.076 483.517 54.044 464.472C54.02 450.309 54.279 438.722 54.619 438.722C54.96 438.722 57.772 440.235 60.869 442.084C63.966 443.934 76.85 451.433 89.5 458.748C119.225 475.939 149.751 493.773 168 504.611L182.5 513.222L132 513.486C99.119 513.658 79.701 513.378 76.344 512.685C66.93 510.739 58.825 503.502 55.444 494.024ZM423.675 490.722C444.96 478.347 473.653 461.615 487.437 453.54C501.222 445.465 513.107 438.828 513.848 438.79C514.958 438.734 515.116 443.287 514.738 464.472C514.465 479.757 513.812 491.69 513.13 493.834C510.28 502.801 501.275 510.697 491.625 512.691C488.306 513.377 468.615 513.657 435.737 513.486L384.974 513.222L423.675 490.722ZM120.406 646.058C128.075 630.056 144.248 618.529 162.87 615.793C182.093 612.969 200.661 618.168 213.624 630.004C225.031 640.42 231.154 654.376 231.258 670.194C231.477 703.567 205.065 727.255 169.635 725.461C157.426 724.843 148.711 722.274 140.232 716.793C124.343 706.524 116.093 692.291 115.227 673.655C114.692 662.157 115.981 655.292 120.406 646.058ZM0.0019989 724.222L0.00100708 670.402L0 616.582L34.25 616.928C67.031 617.26 68.742 617.372 74.145 619.531C87.344 624.806 93.017 632.529 92.978 645.168C92.951 653.855 90.873 658.815 85.067 664.05C82.732 666.155 80.975 667.97 81.161 668.083C81.347 668.196 82.758 668.923 84.296 669.699C88.406 671.772 93.4 676.949 95.539 681.356C97.893 686.204 98.662 698.287 96.994 704.243C94.483 713.212 85.437 720.051 72.5 722.762C68.443 723.612 55.731 724.052 33.251 724.121L0.0019989 724.222ZM265.258 651.009C258.21 641.226 249.838 629.51 246.653 624.972L240.862 616.722H255.364H269.866L281.582 633.472C288.026 642.684 293.408 650.362 293.543 650.532C293.677 650.703 299.072 643.353 305.532 634.198C311.991 625.043 317.799 617.352 318.439 617.107C319.078 616.862 325.495 616.787 332.699 616.942L345.798 617.222L328.794 640.722C319.442 653.647 311.145 665.181 310.357 666.354C309.009 668.36 310.025 670.014 327.572 694.354C337.829 708.581 346.846 720.932 347.61 721.801C348.375 722.669 349 723.698 349 724.088C349 724.477 342.507 724.738 334.572 724.667C322.496 724.559 319.906 724.268 318.688 722.88C317.887 721.968 311.97 713.572 305.538 704.222C299.106 694.872 293.624 687.314 293.355 687.426C293.087 687.538 287.16 695.783 280.184 705.747L267.5 723.864L253.25 724.366C245.413 724.642 239 724.548 239 724.159C239 723.432 241.192 720.319 263.603 689.22C270.737 679.319 276.912 670.674 277.323 670.008C277.784 669.263 273.139 661.95 265.258 651.009ZM366.002 724.222L366.001 670.472L366 616.722H407.049H448.098L447.926 626.722L447.753 636.722H419.377H391V648.222V659.722H416.036H441.072L440.786 669.472L440.5 679.222L415.75 679.489L391 679.757V691.739V703.722H420.5H450V713.722V723.722L447.25 723.94C445.737 724.06 426.838 724.173 405.251 724.19L366.002 724.222ZM473.003 724.222L473.001 670.396L473 616.569L503.75 616.954C532.481 617.313 534.894 617.483 540.5 619.551C558.477 626.181 566.753 638.635 565.798 657.624C565.134 670.831 559.73 680.279 549.369 686.352L545.07 688.871L556.089 705.355C562.149 714.422 567.357 722.488 567.661 723.281C568.125 724.49 566.131 724.722 555.281 724.722C548.678 724.722 545.314 724.997 542.629 723.777C539.075 722.163 536.711 717.929 529.596 706.972L520.992 693.722H509.496H498V708.722V723.722L491.75 723.867C488.313 723.947 482.688 724.06 479.251 724.117L473.003 724.222ZM68.273 647.439C68.273 642.543 64.109 637.998 58.412 636.677C56.26 636.178 47.637 635.759 39.25 635.746L24 635.722V647.803V659.884L41.75 659.552C56.368 659.278 60.068 658.909 62.72 657.461C66.722 655.274 68.273 652.476 68.273 647.439ZM203.025 655.222C199.588 648.214 192.225 641.324 185.474 638.798C178.134 636.052 167.461 636.073 160.242 638.847C153.787 641.328 146.313 648.416 142.975 655.222C140.873 659.509 140.521 661.648 140.512 670.222C140.502 678.344 140.901 681.09 142.637 684.844C154.493 710.485 191.499 710.518 203.339 684.898C205.101 681.084 205.498 678.377 205.488 670.222C205.479 661.648 205.127 659.509 203.025 655.222ZM539.939 661.407C542.995 653.3 539.346 643.721 531.728 639.853C527.519 637.715 525.248 637.371 512.478 636.938L498 636.446V654.584V672.722L511.75 672.716C519.313 672.713 527.095 672.268 529.044 671.726C533.065 670.609 538.36 665.594 539.939 661.407ZM70.465 699.581C76.038 692.959 72.596 682.093 64.186 679.757C62.159 679.194 52.274 678.731 42.22 678.728L23.94 678.722L24.22 691.472L24.5 704.222L41 704.536C60.785 704.912 66.836 703.894 70.465 699.581Z" fill="#2E343B"/>
<path d="M351.53 83.3451C351.571 89.5781 351.908 96.6371 352.28 99.0321L352.956 103.387L408.456 135.39C438.981 152.992 468.906 170.218 474.956 173.671L485.956 179.949L486.21 289.013L486.465 398.078L472.21 406.464C465.84 410.211 448.677 420.249 430.812 430.676C430.081 431.103 429.349 431.53 428.616 431.958C427.972 432.334 427.327 432.71 426.682 433.087C423.926 434.695 421.172 436.301 418.456 437.885C374.311 463.63 351.781 476.931 348.48 479.196L346.266 480.715L350.111 492.941C352.226 499.665 354.323 505.169 354.771 505.172C355.219 505.175 363.544 500.521 373.271 494.83C422.655 465.938 446.019 452.319 466.956 440.219C507.436 416.826 508.746 415.841 511.862 406.46C513.333 402.03 513.464 390.604 513.223 287.119L512.956 172.677L510.721 168.496C509.491 166.196 506.791 162.899 504.721 161.169C502.65 159.438 475.306 143.301 443.956 125.307C418.069 110.449 399.993 100.075 387.266 92.7666L383.606 90.6647C359.075 76.576 357.045 75.386 354.706 73.9751L351.456 72.0141L351.53 83.3451Z" fill="#FF8D28"/>
<path d="M342.5 239L325.5 249.5L325 250L327 252L336.5 261.5H363.5V260L342.5 239Z" fill="#FF8D28"/>
</svg>
