<svg width="787" height="850" viewBox="0 0 787 850" fill="none" xmlns="http://www.w3.org/2000/svg">
<rect width="787" height="850" fill="#D9D9D9"/>
<path fill-rule="evenodd" clip-rule="evenodd" d="M131.31 77.1961C137.788 71.4861 150.455 65.1151 159 63.2701C164.487 62.0851 201.569 61.8941 397 62.0441L628.5 62.2221L635 64.5551C655.256 71.8271 670.209 87.7581 675.515 107.722C676.777 112.471 676.978 144.882 676.988 345.078C676.999 570.895 677.407 582.6 672.708 591.655C672.062 592.9 671.319 594.095 670.466 595.79C666.416 603.833 658.047 613.169 650.248 618.345C647.135 620.412 640.743 623.479 636.044 625.162L627.5 628.222L517.054 628.502C456.308 628.655 406.858 628.531 407.163 628.225C407.469 627.92 419.05 620.944 432.898 612.724L458.077 597.777L540.789 597.5C616.009 597.247 624.18 597.492 630.044 593.934C631.212 593.226 632.288 592.367 633.784 591.323C638.723 587.877 643.559 581.074 645.077 575.436C645.797 572.764 646.154 499.755 646.208 344.141L646.289 116.75L643.102 110.278C639.336 102.628 633.85 97.5581 626.269 94.7211C620.915 92.7181 619.374 92.7071 392.69 92.9631L164.5 93.2221L160 95.5781C153.869 98.7881 148.356 104.229 145.164 110.222L142.5 115.222V345.222V575.222L145.164 580.222C148.588 586.649 154.193 592.022 160.5 594.923L165.5 597.222L248 597.722L330.5 598.222L355 612.622C368.475 620.543 379.946 627.424 380.491 627.914C381.072 628.435 335.681 628.674 270.991 628.489C169.137 628.199 158.106 628.53 149.156 624.376C147.278 623.505 145.492 622.436 142.978 621.122C129.649 614.157 118.678 601.142 113.94 586.672L111.5 579.222V344.722V110.222L114.124 103.046C117.477 93.8761 124.682 83.0401 131.31 77.1961ZM361.488 113.742C361.967 112.967 383.789 100.217 386 99.4201C386.825 99.1231 390.474 98.8441 394.109 98.8011C399.502 98.7371 401.71 99.2391 406.109 101.529C411.083 104.12 429.098 114.517 429.811 115.209C430.087 115.477 419.293 137.654 418.428 138.596C418.239 138.802 412.951 135.99 406.677 132.346C400.403 128.703 394.783 125.722 394.189 125.722C393.594 125.722 388.065 128.653 381.901 132.236C375.737 135.818 370.497 138.552 370.256 138.312C369.312 137.367 361.103 114.364 361.488 113.742ZM166.662 130.222C169.75 124.507 174.728 119.78 180.5 117.08L185.5 114.742L249.973 114.732C304.4 114.724 314.138 114.932 312.473 116.072C311.388 116.814 296.775 125.299 280 134.927C181.967 191.193 166.785 199.867 165.412 200.394C164.076 200.907 163.934 197.066 164.199 167.598C164.488 135.591 164.589 134.058 166.662 130.222ZM521.5 142.509C498.4 129.318 478.15 117.67 476.5 116.624C473.537 114.746 474.308 114.726 539.579 114.973L605.659 115.222L610.545 118.243C616.344 121.829 621.454 128.186 623.223 134.014C624.562 138.426 625.152 198.905 623.869 200.187C623.521 200.534 609.796 193.095 593.369 183.655C576.941 174.216 544.6 155.7 521.5 142.509ZM315.019 178.767C335.742 133.582 339.068 126.944 341.977 124.972C343.802 123.734 345.625 122.722 346.027 122.722C346.119 122.722 346.188 122.69 346.26 122.686C346.884 122.65 347.633 124.779 364.379 169.722C372.884 192.547 380.135 211.968 380.493 212.879C380.964 214.081 383.457 214.88 389.576 215.791C394.215 216.481 398.185 216.86 398.4 216.634C398.614 216.407 408.809 195.859 421.056 170.972C433.303 146.085 443.701 125.722 444.162 125.722C444.623 125.722 444.998 129.66 444.995 134.472C444.991 142.999 448.95 227.005 449.376 227.432C449.494 227.55 455.71 229.801 463.188 232.434L476.786 237.223L497.143 256.308L517.5 275.393L521.379 284.509L525.259 293.626L522.742 296.617C520.098 299.759 517.15 312.281 518.695 313.807C519.343 314.447 559.993 326.722 561.463 326.722C561.689 326.722 563.473 328.41 565.428 330.472C568.845 334.077 568.983 334.511 568.991 341.673C568.997 346.565 570.73 357.844 574.039 374.514C576.931 389.088 578.788 400.814 578.399 402.041C576.644 407.569 559.856 442.354 558.444 443.387C557.565 444.03 554.518 444.857 551.673 445.225C546.814 445.854 545.995 446.409 538.169 454.387L529.838 462.88L511.169 458.295C500.901 455.774 491.357 453.713 489.959 453.716C488.303 453.72 483.643 456.653 476.577 462.14C470.614 466.77 465.232 470.393 464.618 470.191C456.879 467.654 429.708 461.636 429.093 462.324C428.65 462.818 426.844 468.767 425.078 475.543L421.869 487.865L435.934 531.161C443.67 554.973 450 574.854 450 575.339C449.999 576.138 413.232 598.158 405.137 602.208C400.684 604.435 392.463 605.204 387.5 603.856C385.3 603.259 377.65 599.324 370.5 595.113C344.502 579.801 237.401 517.337 206.845 499.667C189.605 489.697 173.84 479.941 171.812 477.988C169.783 476.035 167.188 472.263 166.045 469.606C163.976 464.795 163.968 464.299 164.234 349.498L164.5 234.222L166.658 230.222C167.846 228.022 170.098 225.006 171.663 223.52C173.229 222.034 187.107 213.547 202.505 204.66C232.628 187.274 302.777 146.917 309.76 142.956L314.02 140.54L313.075 142.881C312.555 144.169 308.351 153.507 303.733 163.633L295.336 182.044L262.323 201.133C244.166 211.632 220.7 225.172 210.177 231.222L191.044 242.222L191.022 346.172C191.008 410.475 191.356 449.76 191.933 449.172C192.446 448.65 200.253 435.172 209.284 419.222C218.314 403.272 238.532 367.722 254.213 340.222C269.894 312.722 283.622 288.422 284.718 286.222C286.301 283.045 287.191 276.883 289.045 256.267L291.379 230.312L315.019 178.767ZM528.456 499.885C531.172 498.301 533.926 496.695 536.682 495.087C537.327 494.71 537.972 494.334 538.616 493.958C535.217 495.942 531.807 497.931 528.456 499.885ZM354.639 215.959C352.207 206.754 348.523 192.472 346.453 184.222C344.383 175.972 342.416 168.902 342.083 168.511C341.75 168.119 334.985 182.294 327.05 200.011L312.623 232.222L310.975 251.222L309.327 270.222L314.705 276.884C319.118 282.351 320.949 284.838 322.546 284.696C323.908 284.574 325.1 282.541 327.579 278.813L332.272 271.754L326.854 265.488L321.437 259.222L322.547 246.977C323.158 240.242 323.907 234.482 324.212 234.177C324.517 233.871 328.715 237.898 333.54 243.125C338.366 248.352 342.918 252.86 343.656 253.143C344.518 253.474 347.515 249.907 352.03 243.177L359.062 232.697L354.639 215.959ZM454.396 247.463C443.706 243.803 434.732 241.674 415.5 238.236C401.75 235.779 389.536 233.604 388.357 233.404C388.256 233.387 388.16 233.37 388.064 233.362C386.065 233.193 383.752 236.732 330.202 318.472C326.148 324.66 322.532 329.704 322.166 329.683C321.8 329.661 317.45 324.501 312.5 318.214C307.55 311.928 303.181 306.771 302.792 306.753C302.729 306.75 302.679 306.734 302.628 306.729C302.004 306.662 301.218 308.129 275.97 353.222C245.913 406.905 214.618 462.572 212.075 466.875L209.917 470.528L215.709 473.82C224.506 478.821 284.102 513.591 295.843 520.572C301.532 523.954 306.365 526.722 306.584 526.722C306.803 526.722 307.098 503.66 307.241 475.472L307.5 424.222L325.403 486.42L343.305 548.619L359.323 557.92L366.126 561.871C373.289 566.03 380.631 570.294 384.383 572.472C390.21 575.856 394.084 577.513 395.279 577.133C396.809 576.648 418.543 564.248 419.918 563.076C420.447 562.625 407.674 521.759 407 521.747C406.725 521.742 404.511 529.047 402.08 537.98C399.649 546.913 397.483 554.563 397.267 554.979C397.05 555.395 394.946 553.379 392.59 550.499L388.307 545.262L390.609 534.742C391.875 528.956 395.432 513.035 398.512 499.362C401.593 485.689 403.969 474.357 403.792 474.181C403.616 474.005 394.278 481.241 383.041 490.263C371.803 499.284 362.514 506.565 362.397 506.443C362.046 506.078 368.691 477.031 369.38 475.916C369.73 475.349 373.051 472.737 376.759 470.112C384.356 464.732 407.004 447.931 408.433 446.615C408.947 446.142 409.167 445.556 408.923 445.312C408.679 445.068 397.459 442.098 383.99 438.712C370.52 435.326 357.827 432.129 355.782 431.609C352.64 430.809 349.731 427.952 337.032 413.193L322 395.725L322.083 372.473L322.167 349.222L324.646 354.464C326.009 357.347 329.348 365.596 332.065 372.795C336.753 385.219 337.404 386.324 344.857 394.553C352.636 403.141 355.636 406.987 359.529 409.377C363.688 411.929 368.867 412.819 381.98 416.053C394.344 419.101 404.522 421.511 404.598 421.409C404.674 421.306 403.607 415.024 402.226 407.448C400.845 399.872 399.975 393.414 400.293 393.096C400.61 392.779 403.439 394.358 406.579 396.607L412.288 400.695L420.623 419.886C425.206 430.441 429.518 439.424 430.203 439.848C430.889 440.271 439.163 442.526 448.591 444.858L465.732 449.098L478.116 438.701C484.927 432.982 500.175 419.947 512 409.734C523.825 399.521 536.105 388.971 539.288 386.289L545.076 381.414L544.788 373.334L544.5 365.254L540.166 362.867L535.831 360.479L539.582 356.638C543.598 352.525 544.507 348.243 542.004 345.227C539.088 341.714 534.949 344.963 533.552 351.862C532.768 355.733 530.838 355.954 522.053 353.179L514.15 350.682L511.972 344.138C510.774 340.539 509.953 337.441 510.147 337.253C510.341 337.065 513.859 335.092 517.965 332.868C522.702 330.302 524.895 328.619 523.965 328.263C523.159 327.954 516.913 326.018 510.084 323.962L497.669 320.222L494.792 311.722C491.946 303.31 488 287.936 488 285.258C488 284.495 490.587 286.584 493.75 289.901L499.5 295.931L500.192 292.077C500.764 288.892 501.201 286.861 500.869 284.965C500.206 281.183 496.479 277.937 484.646 267.142L468.292 252.222L454.396 247.463ZM442 274.106C439.8 271.192 438 268.564 438 268.265C438 267.486 438.147 267.505 450.907 269.883L462.5 272.043L471.792 280.621L481.083 289.199L480.816 297.711C480.577 305.35 480.906 307.168 484.025 315.449L487.5 324.677L477.351 334.949C471.77 340.599 466.509 346.611 465.661 348.308C464.812 350.005 460.581 360.14 456.258 370.831C451.935 381.522 448.057 390.82 447.64 391.495C447.123 392.333 443.692 392.722 436.834 392.722C427.665 392.722 426.847 392.569 427.485 390.972C427.87 390.01 430.851 382.272 434.11 373.778L440.036 358.335L436.199 354.278C416.134 333.067 397.85 312.423 398.653 311.884C399.195 311.52 410.07 304.528 422.819 296.346C435.569 288.164 446 281.005 446 280.437C446 279.869 444.2 277.02 442 274.106ZM567.714 393.342C567.975 393.08 566.949 385.859 565.433 377.294C563.917 368.729 562.369 361.722 561.994 361.722C561.618 361.722 560.565 362.545 559.655 363.551C558.389 364.949 558.002 367.36 558.007 373.801L558.015 382.222L562.626 388.02C565.163 391.209 567.452 393.603 567.714 393.342ZM557.225 408.156C557.639 407.491 556.397 404.993 554.342 402.355C552.357 399.807 550.388 397.722 549.967 397.722C548.696 397.722 506 436.118 506 437.261C506 437.48 506.563 437.456 507.25 437.208C507.938 436.96 515.469 435.591 523.987 434.166C532.504 432.74 540.087 431.064 540.838 430.441C541.975 429.498 554.831 412.014 557.225 408.156ZM165.444 556.024C164.441 553.212 164.076 545.517 164.044 526.472C164.02 512.309 164.279 500.722 164.619 500.722C164.96 500.722 167.772 502.235 170.869 504.084C173.966 505.934 186.85 513.433 199.5 520.748C229.225 537.939 259.751 555.773 278 566.611L292.5 575.222L242 575.486C209.119 575.658 189.701 575.378 186.344 574.685C176.93 572.739 168.825 565.502 165.444 556.024ZM533.675 552.722C554.96 540.347 583.653 523.615 597.437 515.54C611.222 507.465 623.107 500.828 623.848 500.79C624.958 500.734 625.116 505.287 624.738 526.472C624.465 541.757 623.812 553.69 623.13 555.834C620.28 564.801 611.275 572.697 601.625 574.691C598.306 575.377 578.615 575.657 545.737 575.486L494.974 575.222L533.675 552.722ZM230.406 708.058C238.075 692.056 254.248 680.529 272.87 677.793C292.093 674.969 310.661 680.168 323.624 692.004C335.031 702.42 341.154 716.376 341.258 732.194C341.477 765.567 315.065 789.255 279.635 787.461C267.426 786.843 258.711 784.274 250.232 778.793C234.343 768.524 226.093 754.291 225.227 735.655C224.692 724.157 225.981 717.292 230.406 708.058ZM110.002 786.222L110.001 732.402L110 678.582L144.25 678.928C177.031 679.26 178.742 679.372 184.145 681.531C197.344 686.806 203.017 694.529 202.978 707.168C202.951 715.855 200.873 720.815 195.067 726.05C192.732 728.155 190.975 729.97 191.161 730.083C191.347 730.196 192.758 730.923 194.296 731.699C198.406 733.772 203.4 738.949 205.539 743.356C207.893 748.204 208.662 760.287 206.994 766.243C204.483 775.212 195.437 782.051 182.5 784.762C178.443 785.612 165.731 786.052 143.251 786.121L110.002 786.222ZM375.258 713.009C368.21 703.226 359.838 691.51 356.653 686.972L350.862 678.722H365.364H379.866L391.582 695.472C398.026 704.684 403.408 712.362 403.543 712.532C403.677 712.703 409.072 705.353 415.532 696.198C421.991 687.043 427.799 679.352 428.439 679.107C429.078 678.862 435.495 678.787 442.699 678.942L455.798 679.222L438.794 702.722C429.442 715.647 421.145 727.181 420.357 728.354C419.009 730.36 420.025 732.014 437.572 756.354C447.829 770.581 456.846 782.932 457.61 783.801C458.375 784.669 459 785.698 459 786.088C459 786.477 452.507 786.738 444.572 786.667C432.496 786.559 429.906 786.268 428.688 784.88C427.887 783.968 421.97 775.572 415.538 766.222C409.106 756.872 403.624 749.314 403.355 749.426C403.087 749.538 397.16 757.783 390.184 767.747L377.5 785.864L363.25 786.366C355.413 786.642 349 786.548 349 786.159C349 785.432 351.192 782.319 373.603 751.22C380.737 741.319 386.912 732.674 387.323 732.008C387.784 731.263 383.139 723.95 375.258 713.009ZM476.002 786.222L476.001 732.472L476 678.722H517.049H558.098L557.926 688.722L557.753 698.722H529.377H501V710.222V721.722H526.036H551.072L550.786 731.472L550.5 741.222L525.75 741.489L501 741.757V753.739V765.722H530.5H560V775.722V785.722L557.25 785.94C555.737 786.06 536.838 786.173 515.251 786.19L476.002 786.222ZM583.003 786.222L583.001 732.396L583 678.569L613.75 678.954C642.481 679.313 644.894 679.483 650.5 681.551C668.477 688.181 676.753 700.635 675.798 719.624C675.134 732.831 669.73 742.279 659.369 748.352L655.07 750.871L666.089 767.355C672.149 776.422 677.357 784.488 677.661 785.281C678.125 786.49 676.131 786.722 665.281 786.722C658.678 786.722 655.314 786.997 652.629 785.777C649.075 784.163 646.711 779.929 639.596 768.972L630.992 755.722H619.496H608V770.722V785.722L601.75 785.867C598.313 785.947 592.688 786.06 589.251 786.117L583.003 786.222ZM178.273 709.439C178.273 704.543 174.109 699.998 168.412 698.677C166.26 698.178 157.637 697.759 149.25 697.746L134 697.722V709.803V721.884L151.75 721.552C166.368 721.278 170.068 720.909 172.72 719.461C176.722 717.274 178.273 714.476 178.273 709.439ZM313.025 717.222C309.588 710.214 302.225 703.324 295.474 700.798C288.134 698.052 277.461 698.073 270.242 700.847C263.787 703.328 256.313 710.416 252.975 717.222C250.873 721.509 250.521 723.648 250.512 732.222C250.502 740.344 250.901 743.09 252.637 746.844C264.493 772.485 301.499 772.518 313.339 746.898C315.101 743.084 315.498 740.377 315.488 732.222C315.479 723.648 315.127 721.509 313.025 717.222ZM649.939 723.407C652.995 715.3 649.346 705.721 641.728 701.853C637.519 699.715 635.248 699.371 622.478 698.938L608 698.446V716.584V734.722L621.75 734.716C629.313 734.713 637.095 734.268 639.044 733.726C643.065 732.609 648.36 727.594 649.939 723.407ZM180.465 761.581C186.038 754.959 182.596 744.093 174.186 741.757C172.159 741.194 162.274 740.731 152.22 740.728L133.94 740.722L134.22 753.472L134.5 766.222L151 766.536C170.785 766.912 176.836 765.894 180.465 761.581Z" fill="#2E343B"/>
<path d="M461.53 145.345C461.571 151.578 461.908 158.637 462.28 161.032L462.956 165.387L518.456 197.39C548.981 214.992 578.906 232.218 584.956 235.671L595.956 241.949L596.21 351.013L596.465 460.078L582.21 468.464C575.84 472.211 558.677 482.249 540.812 492.676C540.081 493.103 539.349 493.53 538.616 493.958C537.972 494.334 537.327 494.71 536.682 495.087C533.926 496.695 531.172 498.301 528.456 499.885C484.311 525.63 461.781 538.931 458.48 541.196L456.266 542.715L460.111 554.941C462.226 561.665 464.323 567.169 464.771 567.172C465.219 567.175 473.544 562.521 483.271 556.83C532.655 527.938 556.019 514.319 576.956 502.219C617.436 478.826 618.746 477.841 621.862 468.46C623.333 464.03 623.464 452.604 623.223 349.119L622.956 234.677L620.721 230.496C619.491 228.196 616.791 224.899 614.721 223.169C612.65 221.438 585.306 205.301 553.956 187.307C528.069 172.449 509.993 162.075 497.266 154.767L493.606 152.665C469.075 138.576 467.045 137.386 464.706 135.975L461.456 134.014L461.53 145.345Z" fill="#FF8D28"/>
<path d="M452.5 301L435.5 311.5L435 312L437 314L446.5 323.5H473.5V322L452.5 301Z" fill="#FF8D28"/>
</svg>
